<mxfile host="app.diagrams.net" modified="2024-07-08T09:07:49.683Z" agent="Mozilla/5.0 (Windows NT 10.0; Win64; x64) AppleWebKit/537.36 (KHTML, like Gecko) Chrome/126.0.0.0 Safari/537.36" etag="p7QqjuC4Qc0YeGWTcsvF" version="24.6.4" type="github">
  <diagram name="第 1 页" id="r9NZ0NUqpTUOCgciCteN">
    <mxGraphModel dx="2843" dy="1179" grid="1" gridSize="10" guides="1" tooltips="1" connect="1" arrows="1" fold="1" page="1" pageScale="1" pageWidth="827" pageHeight="1169" math="0" shadow="0">
      <root>
        <mxCell id="0" />
        <mxCell id="1" parent="0" />
        <mxCell id="3JbS52HwbgW0bo7ksS-z-62" value="" style="rounded=0;whiteSpace=wrap;html=1;" parent="1" vertex="1">
          <mxGeometry x="240" y="800" width="240" height="480" as="geometry" />
        </mxCell>
        <mxCell id="3JbS52HwbgW0bo7ksS-z-63" value="" style="rounded=1;whiteSpace=wrap;html=1;" parent="1" vertex="1">
          <mxGeometry x="250" y="860" width="220" height="60" as="geometry" />
        </mxCell>
        <mxCell id="3JbS52HwbgW0bo7ksS-z-64" value="&lt;font style=&quot;font-size: 24px;&quot;&gt;应用&lt;/font&gt;" style="text;html=1;align=left;verticalAlign=top;whiteSpace=wrap;rounded=0;horizontal=1;" parent="1" vertex="1">
          <mxGeometry x="250" y="800" width="80" height="30" as="geometry" />
        </mxCell>
        <mxCell id="3JbS52HwbgW0bo7ksS-z-65" value="" style="rounded=1;whiteSpace=wrap;html=1;arcSize=50;" parent="1" vertex="1">
          <mxGeometry x="400" y="870" width="50" height="20" as="geometry" />
        </mxCell>
        <mxCell id="3JbS52HwbgW0bo7ksS-z-66" value="" style="ellipse;whiteSpace=wrap;html=1;aspect=fixed;" parent="1" vertex="1">
          <mxGeometry x="430" y="870" width="20" height="20" as="geometry" />
        </mxCell>
        <mxCell id="3JbS52HwbgW0bo7ksS-z-67" value="" style="rounded=1;whiteSpace=wrap;html=1;" parent="1" vertex="1">
          <mxGeometry x="260" y="870" width="40" height="40" as="geometry" />
        </mxCell>
        <mxCell id="3JbS52HwbgW0bo7ksS-z-68" value="麦当劳" style="text;html=1;align=center;verticalAlign=middle;whiteSpace=wrap;rounded=0;" parent="1" vertex="1">
          <mxGeometry x="300" y="870" width="60" height="20" as="geometry" />
        </mxCell>
        <mxCell id="3JbS52HwbgW0bo7ksS-z-69" value="" style="rounded=1;whiteSpace=wrap;html=1;" parent="1" vertex="1">
          <mxGeometry x="250" y="930" width="220" height="60" as="geometry" />
        </mxCell>
        <mxCell id="3JbS52HwbgW0bo7ksS-z-70" value="" style="rounded=1;whiteSpace=wrap;html=1;arcSize=50;" parent="1" vertex="1">
          <mxGeometry x="400" y="940" width="50" height="20" as="geometry" />
        </mxCell>
        <mxCell id="3JbS52HwbgW0bo7ksS-z-71" value="" style="ellipse;whiteSpace=wrap;html=1;aspect=fixed;" parent="1" vertex="1">
          <mxGeometry x="430" y="940" width="20" height="20" as="geometry" />
        </mxCell>
        <mxCell id="3JbS52HwbgW0bo7ksS-z-72" value="" style="rounded=1;whiteSpace=wrap;html=1;" parent="1" vertex="1">
          <mxGeometry x="260" y="940" width="40" height="40" as="geometry" />
        </mxCell>
        <mxCell id="3JbS52HwbgW0bo7ksS-z-73" value="瑞幸咖啡" style="text;html=1;align=center;verticalAlign=middle;whiteSpace=wrap;rounded=0;" parent="1" vertex="1">
          <mxGeometry x="300" y="940" width="60" height="20" as="geometry" />
        </mxCell>
        <mxCell id="3JbS52HwbgW0bo7ksS-z-74" value="" style="rounded=1;whiteSpace=wrap;html=1;" parent="1" vertex="1">
          <mxGeometry x="250" y="1000" width="220" height="60" as="geometry" />
        </mxCell>
        <mxCell id="3JbS52HwbgW0bo7ksS-z-75" value="" style="rounded=1;whiteSpace=wrap;html=1;arcSize=50;" parent="1" vertex="1">
          <mxGeometry x="400" y="1010" width="50" height="20" as="geometry" />
        </mxCell>
        <mxCell id="3JbS52HwbgW0bo7ksS-z-76" value="" style="ellipse;whiteSpace=wrap;html=1;aspect=fixed;" parent="1" vertex="1">
          <mxGeometry x="430" y="1010" width="20" height="20" as="geometry" />
        </mxCell>
        <mxCell id="3JbS52HwbgW0bo7ksS-z-77" value="" style="rounded=1;whiteSpace=wrap;html=1;" parent="1" vertex="1">
          <mxGeometry x="260" y="1010" width="40" height="40" as="geometry" />
        </mxCell>
        <mxCell id="3JbS52HwbgW0bo7ksS-z-78" value="肯德基" style="text;html=1;align=center;verticalAlign=middle;whiteSpace=wrap;rounded=0;" parent="1" vertex="1">
          <mxGeometry x="300" y="1010" width="60" height="20" as="geometry" />
        </mxCell>
        <mxCell id="3JbS52HwbgW0bo7ksS-z-79" value="" style="rounded=1;whiteSpace=wrap;html=1;" parent="1" vertex="1">
          <mxGeometry x="250" y="1070" width="220" height="60" as="geometry" />
        </mxCell>
        <mxCell id="3JbS52HwbgW0bo7ksS-z-80" value="" style="rounded=1;whiteSpace=wrap;html=1;arcSize=50;" parent="1" vertex="1">
          <mxGeometry x="400" y="1080" width="50" height="20" as="geometry" />
        </mxCell>
        <mxCell id="3JbS52HwbgW0bo7ksS-z-81" value="" style="ellipse;whiteSpace=wrap;html=1;aspect=fixed;" parent="1" vertex="1">
          <mxGeometry x="430" y="1080" width="20" height="20" as="geometry" />
        </mxCell>
        <mxCell id="3JbS52HwbgW0bo7ksS-z-82" value="" style="rounded=1;whiteSpace=wrap;html=1;" parent="1" vertex="1">
          <mxGeometry x="260" y="1080" width="40" height="40" as="geometry" />
        </mxCell>
        <mxCell id="3JbS52HwbgW0bo7ksS-z-83" value="哈罗单车" style="text;html=1;align=center;verticalAlign=middle;whiteSpace=wrap;rounded=0;" parent="1" vertex="1">
          <mxGeometry x="300" y="1080" width="60" height="20" as="geometry" />
        </mxCell>
        <mxCell id="3JbS52HwbgW0bo7ksS-z-84" value="" style="rounded=0;whiteSpace=wrap;html=1;" parent="1" vertex="1">
          <mxGeometry x="-40" y="800" width="240" height="480" as="geometry" />
        </mxCell>
        <mxCell id="3JbS52HwbgW0bo7ksS-z-86" value="&lt;font style=&quot;font-size: 24px;&quot;&gt;主页&lt;/font&gt;" style="text;html=1;align=left;verticalAlign=top;whiteSpace=wrap;rounded=0;horizontal=1;" parent="1" vertex="1">
          <mxGeometry x="-30" y="800" width="80" height="30" as="geometry" />
        </mxCell>
        <mxCell id="3JbS52HwbgW0bo7ksS-z-106" value="服务关闭" style="ellipse;whiteSpace=wrap;html=1;aspect=fixed;" parent="1" vertex="1">
          <mxGeometry x="10" y="870" width="140" height="140" as="geometry" />
        </mxCell>
        <mxCell id="3JbS52HwbgW0bo7ksS-z-107" value="" style="rounded=0;whiteSpace=wrap;html=1;" parent="1" vertex="1">
          <mxGeometry x="240" y="1390" width="240" height="50" as="geometry" />
        </mxCell>
        <mxCell id="3JbS52HwbgW0bo7ksS-z-114" style="edgeStyle=orthogonalEdgeStyle;rounded=0;orthogonalLoop=1;jettySize=auto;html=1;exitX=0.5;exitY=0;exitDx=0;exitDy=0;entryX=0.5;entryY=1;entryDx=0;entryDy=0;" parent="1" source="3JbS52HwbgW0bo7ksS-z-108" target="3JbS52HwbgW0bo7ksS-z-84" edge="1">
          <mxGeometry relative="1" as="geometry" />
        </mxCell>
        <mxCell id="3JbS52HwbgW0bo7ksS-z-108" value="" style="rounded=1;whiteSpace=wrap;html=1;" parent="1" vertex="1">
          <mxGeometry x="280" y="1400" width="20" height="20" as="geometry" />
        </mxCell>
        <mxCell id="3JbS52HwbgW0bo7ksS-z-109" value="主页" style="text;html=1;align=center;verticalAlign=middle;whiteSpace=wrap;rounded=0;" parent="1" vertex="1">
          <mxGeometry x="260" y="1420" width="60" height="20" as="geometry" />
        </mxCell>
        <mxCell id="3JbS52HwbgW0bo7ksS-z-115" style="edgeStyle=orthogonalEdgeStyle;rounded=0;orthogonalLoop=1;jettySize=auto;html=1;exitX=0.5;exitY=0;exitDx=0;exitDy=0;entryX=0.5;entryY=1;entryDx=0;entryDy=0;" parent="1" source="3JbS52HwbgW0bo7ksS-z-110" target="3JbS52HwbgW0bo7ksS-z-62" edge="1">
          <mxGeometry relative="1" as="geometry" />
        </mxCell>
        <mxCell id="3JbS52HwbgW0bo7ksS-z-110" value="" style="rounded=1;whiteSpace=wrap;html=1;" parent="1" vertex="1">
          <mxGeometry x="350" y="1400" width="20" height="20" as="geometry" />
        </mxCell>
        <mxCell id="3JbS52HwbgW0bo7ksS-z-111" value="应用" style="text;html=1;align=center;verticalAlign=middle;whiteSpace=wrap;rounded=0;" parent="1" vertex="1">
          <mxGeometry x="330" y="1420" width="60" height="20" as="geometry" />
        </mxCell>
        <mxCell id="3JbS52HwbgW0bo7ksS-z-138" style="edgeStyle=orthogonalEdgeStyle;rounded=0;orthogonalLoop=1;jettySize=auto;html=1;exitX=0.5;exitY=0;exitDx=0;exitDy=0;entryX=0.5;entryY=1;entryDx=0;entryDy=0;" parent="1" source="3JbS52HwbgW0bo7ksS-z-112" target="3JbS52HwbgW0bo7ksS-z-116" edge="1">
          <mxGeometry relative="1" as="geometry" />
        </mxCell>
        <mxCell id="3JbS52HwbgW0bo7ksS-z-112" value="" style="rounded=1;whiteSpace=wrap;html=1;" parent="1" vertex="1">
          <mxGeometry x="430" y="1400" width="20" height="20" as="geometry" />
        </mxCell>
        <mxCell id="3JbS52HwbgW0bo7ksS-z-113" value="帮助" style="text;html=1;align=center;verticalAlign=middle;whiteSpace=wrap;rounded=0;" parent="1" vertex="1">
          <mxGeometry x="410" y="1420" width="60" height="20" as="geometry" />
        </mxCell>
        <mxCell id="3JbS52HwbgW0bo7ksS-z-116" value="" style="rounded=0;whiteSpace=wrap;html=1;" parent="1" vertex="1">
          <mxGeometry x="520" y="800" width="240" height="480" as="geometry" />
        </mxCell>
        <mxCell id="3JbS52HwbgW0bo7ksS-z-118" value="&lt;font style=&quot;font-size: 24px;&quot;&gt;帮助&lt;/font&gt;" style="text;html=1;align=left;verticalAlign=top;whiteSpace=wrap;rounded=0;horizontal=1;" parent="1" vertex="1">
          <mxGeometry x="530" y="800" width="80" height="30" as="geometry" />
        </mxCell>
        <mxCell id="3JbS52HwbgW0bo7ksS-z-139" value="（帮助图片）&lt;div&gt;如何打开无障碍模式等&lt;/div&gt;" style="rounded=0;whiteSpace=wrap;html=1;" parent="1" vertex="1">
          <mxGeometry x="545" y="870" width="190" height="380" as="geometry" />
        </mxCell>
        <mxCell id="3JbS52HwbgW0bo7ksS-z-140" value="开启" style="rounded=1;whiteSpace=wrap;html=1;arcSize=50;" parent="1" vertex="1">
          <mxGeometry x="20" y="1050" width="120" height="40" as="geometry" />
        </mxCell>
        <mxCell id="3JbS52HwbgW0bo7ksS-z-142" value="" style="rounded=0;whiteSpace=wrap;html=1;" parent="1" vertex="1">
          <mxGeometry x="240" y="1480" width="520" height="50" as="geometry" />
        </mxCell>
        <mxCell id="3JbS52HwbgW0bo7ksS-z-143" value="" style="rounded=1;whiteSpace=wrap;html=1;" parent="1" vertex="1">
          <mxGeometry x="295" y="1495" width="20" height="20" as="geometry" />
        </mxCell>
        <mxCell id="3JbS52HwbgW0bo7ksS-z-144" value="主页" style="text;html=1;align=center;verticalAlign=middle;whiteSpace=wrap;rounded=0;" parent="1" vertex="1">
          <mxGeometry x="315" y="1495" width="60" height="20" as="geometry" />
        </mxCell>
        <mxCell id="3JbS52HwbgW0bo7ksS-z-145" value="" style="rounded=1;whiteSpace=wrap;html=1;" parent="1" vertex="1">
          <mxGeometry x="460" y="1495" width="20" height="20" as="geometry" />
        </mxCell>
        <mxCell id="3JbS52HwbgW0bo7ksS-z-146" value="应用" style="text;html=1;align=center;verticalAlign=middle;whiteSpace=wrap;rounded=0;" parent="1" vertex="1">
          <mxGeometry x="480" y="1495" width="60" height="20" as="geometry" />
        </mxCell>
        <mxCell id="3JbS52HwbgW0bo7ksS-z-149" value="sm" style="text;html=1;align=center;verticalAlign=middle;whiteSpace=wrap;rounded=0;" parent="1" vertex="1">
          <mxGeometry x="170" y="1410" width="60" height="30" as="geometry" />
        </mxCell>
        <mxCell id="3JbS52HwbgW0bo7ksS-z-150" value="md" style="text;html=1;align=center;verticalAlign=middle;whiteSpace=wrap;rounded=0;" parent="1" vertex="1">
          <mxGeometry x="170" y="1490" width="60" height="30" as="geometry" />
        </mxCell>
        <mxCell id="3JbS52HwbgW0bo7ksS-z-151" value="" style="rounded=0;whiteSpace=wrap;html=1;" parent="1" vertex="1">
          <mxGeometry x="240" y="1580" width="80" height="400" as="geometry" />
        </mxCell>
        <mxCell id="3JbS52HwbgW0bo7ksS-z-152" value="lg" style="text;html=1;align=center;verticalAlign=middle;whiteSpace=wrap;rounded=0;" parent="1" vertex="1">
          <mxGeometry x="180" y="1690" width="60" height="30" as="geometry" />
        </mxCell>
        <mxCell id="3JbS52HwbgW0bo7ksS-z-153" value="" style="rounded=1;whiteSpace=wrap;html=1;" parent="1" vertex="1">
          <mxGeometry x="255" y="1650" width="20" height="20" as="geometry" />
        </mxCell>
        <mxCell id="3JbS52HwbgW0bo7ksS-z-154" value="主页" style="text;html=1;align=center;verticalAlign=middle;whiteSpace=wrap;rounded=0;" parent="1" vertex="1">
          <mxGeometry x="265" y="1650" width="60" height="20" as="geometry" />
        </mxCell>
        <mxCell id="3JbS52HwbgW0bo7ksS-z-155" value="" style="rounded=1;whiteSpace=wrap;html=1;" parent="1" vertex="1">
          <mxGeometry x="255" y="1770" width="20" height="20" as="geometry" />
        </mxCell>
        <mxCell id="3JbS52HwbgW0bo7ksS-z-156" value="应用" style="text;html=1;align=center;verticalAlign=middle;whiteSpace=wrap;rounded=0;" parent="1" vertex="1">
          <mxGeometry x="265" y="1770" width="60" height="20" as="geometry" />
        </mxCell>
        <mxCell id="3JbS52HwbgW0bo7ksS-z-147" value="" style="rounded=1;whiteSpace=wrap;html=1;" parent="1" vertex="1">
          <mxGeometry x="255" y="1890" width="20" height="20" as="geometry" />
        </mxCell>
        <mxCell id="3JbS52HwbgW0bo7ksS-z-148" value="帮助" style="text;html=1;align=center;verticalAlign=middle;whiteSpace=wrap;rounded=0;" parent="1" vertex="1">
          <mxGeometry x="265" y="1890" width="60" height="20" as="geometry" />
        </mxCell>
        <mxCell id="3JbS52HwbgW0bo7ksS-z-157" value="" style="rounded=0;whiteSpace=wrap;html=1;" parent="1" vertex="1">
          <mxGeometry x="-720" y="800" width="480" height="380" as="geometry" />
        </mxCell>
        <mxCell id="3JbS52HwbgW0bo7ksS-z-158" value="服务关闭" style="ellipse;whiteSpace=wrap;html=1;aspect=fixed;" parent="1" vertex="1">
          <mxGeometry x="-670" y="920" width="140" height="140" as="geometry" />
        </mxCell>
        <mxCell id="3JbS52HwbgW0bo7ksS-z-159" value="开启" style="rounded=1;whiteSpace=wrap;html=1;arcSize=50;" parent="1" vertex="1">
          <mxGeometry x="-430" y="980" width="120" height="40" as="geometry" />
        </mxCell>
        <mxCell id="3JbS52HwbgW0bo7ksS-z-161" value="&lt;font style=&quot;font-size: 24px;&quot;&gt;主页&lt;/font&gt;" style="text;html=1;align=left;verticalAlign=top;whiteSpace=wrap;rounded=0;horizontal=1;" parent="1" vertex="1">
          <mxGeometry x="-710" y="800" width="80" height="30" as="geometry" />
        </mxCell>
        <mxCell id="3JbS52HwbgW0bo7ksS-z-162" value="" style="rounded=0;whiteSpace=wrap;html=1;" parent="1" vertex="1">
          <mxGeometry x="-720" y="1240" width="470" height="480" as="geometry" />
        </mxCell>
        <mxCell id="3JbS52HwbgW0bo7ksS-z-163" value="" style="rounded=1;whiteSpace=wrap;html=1;" parent="1" vertex="1">
          <mxGeometry x="-710" y="1300" width="220" height="60" as="geometry" />
        </mxCell>
        <mxCell id="3JbS52HwbgW0bo7ksS-z-164" value="&lt;font style=&quot;font-size: 24px;&quot;&gt;应用&lt;/font&gt;" style="text;html=1;align=left;verticalAlign=top;whiteSpace=wrap;rounded=0;horizontal=1;" parent="1" vertex="1">
          <mxGeometry x="-710" y="1240" width="80" height="30" as="geometry" />
        </mxCell>
        <mxCell id="3JbS52HwbgW0bo7ksS-z-165" value="" style="rounded=1;whiteSpace=wrap;html=1;arcSize=50;" parent="1" vertex="1">
          <mxGeometry x="-560" y="1310" width="50" height="20" as="geometry" />
        </mxCell>
        <mxCell id="3JbS52HwbgW0bo7ksS-z-166" value="" style="ellipse;whiteSpace=wrap;html=1;aspect=fixed;" parent="1" vertex="1">
          <mxGeometry x="-530" y="1310" width="20" height="20" as="geometry" />
        </mxCell>
        <mxCell id="3JbS52HwbgW0bo7ksS-z-167" value="" style="rounded=1;whiteSpace=wrap;html=1;" parent="1" vertex="1">
          <mxGeometry x="-700" y="1310" width="40" height="40" as="geometry" />
        </mxCell>
        <mxCell id="3JbS52HwbgW0bo7ksS-z-168" value="麦当劳" style="text;html=1;align=center;verticalAlign=middle;whiteSpace=wrap;rounded=0;" parent="1" vertex="1">
          <mxGeometry x="-660" y="1310" width="60" height="20" as="geometry" />
        </mxCell>
        <mxCell id="3JbS52HwbgW0bo7ksS-z-169" value="" style="rounded=1;whiteSpace=wrap;html=1;" parent="1" vertex="1">
          <mxGeometry x="-710" y="1370" width="220" height="60" as="geometry" />
        </mxCell>
        <mxCell id="3JbS52HwbgW0bo7ksS-z-170" value="" style="rounded=1;whiteSpace=wrap;html=1;arcSize=50;" parent="1" vertex="1">
          <mxGeometry x="-560" y="1380" width="50" height="20" as="geometry" />
        </mxCell>
        <mxCell id="3JbS52HwbgW0bo7ksS-z-171" value="" style="ellipse;whiteSpace=wrap;html=1;aspect=fixed;" parent="1" vertex="1">
          <mxGeometry x="-530" y="1380" width="20" height="20" as="geometry" />
        </mxCell>
        <mxCell id="3JbS52HwbgW0bo7ksS-z-172" value="" style="rounded=1;whiteSpace=wrap;html=1;" parent="1" vertex="1">
          <mxGeometry x="-700" y="1380" width="40" height="40" as="geometry" />
        </mxCell>
        <mxCell id="3JbS52HwbgW0bo7ksS-z-173" value="瑞幸咖啡" style="text;html=1;align=center;verticalAlign=middle;whiteSpace=wrap;rounded=0;" parent="1" vertex="1">
          <mxGeometry x="-660" y="1380" width="60" height="20" as="geometry" />
        </mxCell>
        <mxCell id="3JbS52HwbgW0bo7ksS-z-174" value="" style="rounded=1;whiteSpace=wrap;html=1;" parent="1" vertex="1">
          <mxGeometry x="-480" y="1300" width="220" height="60" as="geometry" />
        </mxCell>
        <mxCell id="3JbS52HwbgW0bo7ksS-z-175" value="" style="rounded=1;whiteSpace=wrap;html=1;arcSize=50;" parent="1" vertex="1">
          <mxGeometry x="-330" y="1310" width="50" height="20" as="geometry" />
        </mxCell>
        <mxCell id="3JbS52HwbgW0bo7ksS-z-176" value="" style="ellipse;whiteSpace=wrap;html=1;aspect=fixed;" parent="1" vertex="1">
          <mxGeometry x="-300" y="1310" width="20" height="20" as="geometry" />
        </mxCell>
        <mxCell id="3JbS52HwbgW0bo7ksS-z-177" value="" style="rounded=1;whiteSpace=wrap;html=1;" parent="1" vertex="1">
          <mxGeometry x="-470" y="1310" width="40" height="40" as="geometry" />
        </mxCell>
        <mxCell id="3JbS52HwbgW0bo7ksS-z-178" value="肯德基" style="text;html=1;align=center;verticalAlign=middle;whiteSpace=wrap;rounded=0;" parent="1" vertex="1">
          <mxGeometry x="-430" y="1310" width="60" height="20" as="geometry" />
        </mxCell>
        <mxCell id="3JbS52HwbgW0bo7ksS-z-179" value="" style="rounded=1;whiteSpace=wrap;html=1;" parent="1" vertex="1">
          <mxGeometry x="-480" y="1370" width="220" height="60" as="geometry" />
        </mxCell>
        <mxCell id="3JbS52HwbgW0bo7ksS-z-180" value="" style="rounded=1;whiteSpace=wrap;html=1;arcSize=50;" parent="1" vertex="1">
          <mxGeometry x="-330" y="1380" width="50" height="20" as="geometry" />
        </mxCell>
        <mxCell id="3JbS52HwbgW0bo7ksS-z-181" value="" style="ellipse;whiteSpace=wrap;html=1;aspect=fixed;" parent="1" vertex="1">
          <mxGeometry x="-300" y="1380" width="20" height="20" as="geometry" />
        </mxCell>
        <mxCell id="3JbS52HwbgW0bo7ksS-z-182" value="" style="rounded=1;whiteSpace=wrap;html=1;" parent="1" vertex="1">
          <mxGeometry x="-470" y="1380" width="40" height="40" as="geometry" />
        </mxCell>
        <mxCell id="3JbS52HwbgW0bo7ksS-z-183" value="哈罗单车" style="text;html=1;align=center;verticalAlign=middle;whiteSpace=wrap;rounded=0;" parent="1" vertex="1">
          <mxGeometry x="-430" y="1380" width="60" height="20" as="geometry" />
        </mxCell>
        <mxCell id="3JbS52HwbgW0bo7ksS-z-184" value="" style="rounded=0;whiteSpace=wrap;html=1;" parent="1" vertex="1">
          <mxGeometry x="-720" y="1754" width="730" height="480" as="geometry" />
        </mxCell>
        <mxCell id="3JbS52HwbgW0bo7ksS-z-185" value="" style="rounded=1;whiteSpace=wrap;html=1;" parent="1" vertex="1">
          <mxGeometry x="-710" y="1820" width="230" height="60" as="geometry" />
        </mxCell>
        <mxCell id="3JbS52HwbgW0bo7ksS-z-186" value="&lt;font style=&quot;font-size: 24px;&quot;&gt;应用&lt;/font&gt;" style="text;html=1;align=left;verticalAlign=top;whiteSpace=wrap;rounded=0;horizontal=1;" parent="1" vertex="1">
          <mxGeometry x="-710" y="1760" width="80" height="30" as="geometry" />
        </mxCell>
        <mxCell id="3JbS52HwbgW0bo7ksS-z-187" value="" style="rounded=1;whiteSpace=wrap;html=1;arcSize=50;" parent="1" vertex="1">
          <mxGeometry x="-560" y="1830" width="50" height="20" as="geometry" />
        </mxCell>
        <mxCell id="3JbS52HwbgW0bo7ksS-z-188" value="" style="ellipse;whiteSpace=wrap;html=1;aspect=fixed;" parent="1" vertex="1">
          <mxGeometry x="-530" y="1830" width="20" height="20" as="geometry" />
        </mxCell>
        <mxCell id="3JbS52HwbgW0bo7ksS-z-189" value="" style="rounded=1;whiteSpace=wrap;html=1;" parent="1" vertex="1">
          <mxGeometry x="-700" y="1830" width="40" height="40" as="geometry" />
        </mxCell>
        <mxCell id="3JbS52HwbgW0bo7ksS-z-190" value="麦当劳" style="text;html=1;align=center;verticalAlign=middle;whiteSpace=wrap;rounded=0;" parent="1" vertex="1">
          <mxGeometry x="-660" y="1830" width="60" height="20" as="geometry" />
        </mxCell>
        <mxCell id="3JbS52HwbgW0bo7ksS-z-191" value="" style="rounded=1;whiteSpace=wrap;html=1;" parent="1" vertex="1">
          <mxGeometry x="-230" y="1820" width="230" height="60" as="geometry" />
        </mxCell>
        <mxCell id="3JbS52HwbgW0bo7ksS-z-192" value="" style="rounded=1;whiteSpace=wrap;html=1;arcSize=50;" parent="1" vertex="1">
          <mxGeometry x="-70" y="1830" width="50" height="20" as="geometry" />
        </mxCell>
        <mxCell id="3JbS52HwbgW0bo7ksS-z-193" value="" style="ellipse;whiteSpace=wrap;html=1;aspect=fixed;" parent="1" vertex="1">
          <mxGeometry x="-40" y="1830" width="20" height="20" as="geometry" />
        </mxCell>
        <mxCell id="3JbS52HwbgW0bo7ksS-z-194" value="" style="rounded=1;whiteSpace=wrap;html=1;" parent="1" vertex="1">
          <mxGeometry x="-220" y="1830" width="40" height="40" as="geometry" />
        </mxCell>
        <mxCell id="3JbS52HwbgW0bo7ksS-z-195" value="瑞幸咖啡" style="text;html=1;align=center;verticalAlign=middle;whiteSpace=wrap;rounded=0;" parent="1" vertex="1">
          <mxGeometry x="-180" y="1830" width="60" height="20" as="geometry" />
        </mxCell>
        <mxCell id="3JbS52HwbgW0bo7ksS-z-196" value="" style="rounded=1;whiteSpace=wrap;html=1;" parent="1" vertex="1">
          <mxGeometry x="-470" y="1820" width="230" height="60" as="geometry" />
        </mxCell>
        <mxCell id="3JbS52HwbgW0bo7ksS-z-197" value="" style="rounded=1;whiteSpace=wrap;html=1;arcSize=50;" parent="1" vertex="1">
          <mxGeometry x="-310" y="1830" width="50" height="20" as="geometry" />
        </mxCell>
        <mxCell id="3JbS52HwbgW0bo7ksS-z-198" value="" style="ellipse;whiteSpace=wrap;html=1;aspect=fixed;" parent="1" vertex="1">
          <mxGeometry x="-280" y="1830" width="20" height="20" as="geometry" />
        </mxCell>
        <mxCell id="3JbS52HwbgW0bo7ksS-z-199" value="" style="rounded=1;whiteSpace=wrap;html=1;" parent="1" vertex="1">
          <mxGeometry x="-460" y="1830" width="40" height="40" as="geometry" />
        </mxCell>
        <mxCell id="3JbS52HwbgW0bo7ksS-z-200" value="肯德基" style="text;html=1;align=center;verticalAlign=middle;whiteSpace=wrap;rounded=0;" parent="1" vertex="1">
          <mxGeometry x="-420" y="1830" width="60" height="20" as="geometry" />
        </mxCell>
        <mxCell id="3JbS52HwbgW0bo7ksS-z-201" value="" style="rounded=1;whiteSpace=wrap;html=1;" parent="1" vertex="1">
          <mxGeometry x="-710" y="1890" width="230" height="60" as="geometry" />
        </mxCell>
        <mxCell id="3JbS52HwbgW0bo7ksS-z-202" value="" style="rounded=1;whiteSpace=wrap;html=1;arcSize=50;" parent="1" vertex="1">
          <mxGeometry x="-560" y="1900" width="50" height="20" as="geometry" />
        </mxCell>
        <mxCell id="3JbS52HwbgW0bo7ksS-z-203" value="" style="ellipse;whiteSpace=wrap;html=1;aspect=fixed;" parent="1" vertex="1">
          <mxGeometry x="-530" y="1900" width="20" height="20" as="geometry" />
        </mxCell>
        <mxCell id="3JbS52HwbgW0bo7ksS-z-204" value="" style="rounded=1;whiteSpace=wrap;html=1;" parent="1" vertex="1">
          <mxGeometry x="-700" y="1900" width="40" height="40" as="geometry" />
        </mxCell>
        <mxCell id="3JbS52HwbgW0bo7ksS-z-205" value="哈罗单车" style="text;html=1;align=center;verticalAlign=middle;whiteSpace=wrap;rounded=0;" parent="1" vertex="1">
          <mxGeometry x="-660" y="1900" width="60" height="20" as="geometry" />
        </mxCell>
        <mxCell id="3JbS52HwbgW0bo7ksS-z-228" value="md/lg" style="text;html=1;align=center;verticalAlign=middle;whiteSpace=wrap;rounded=0;" parent="1" vertex="1">
          <mxGeometry x="-790" y="910" width="60" height="30" as="geometry" />
        </mxCell>
        <mxCell id="3JbS52HwbgW0bo7ksS-z-229" value="md" style="text;html=1;align=center;verticalAlign=middle;whiteSpace=wrap;rounded=0;" parent="1" vertex="1">
          <mxGeometry x="-790" y="1290" width="60" height="30" as="geometry" />
        </mxCell>
        <mxCell id="3JbS52HwbgW0bo7ksS-z-230" value="lg" style="text;html=1;align=center;verticalAlign=middle;whiteSpace=wrap;rounded=0;" parent="1" vertex="1">
          <mxGeometry x="-790" y="1835" width="60" height="30" as="geometry" />
        </mxCell>
      </root>
    </mxGraphModel>
  </diagram>
</mxfile>
